<?xml version="1.0" encoding="utf-8"?>
<?xml-stylesheet type="text/xsl" href="rss1.xsl"?>
<rss version="2.0" xmlns:atom="http://www.w3.org/2005/Atom" xmlns:content="http://purl.org/rss/1.0/modules/content/" xmlns:dc="http://purl.org/dc/elements/1.1/" xmlns:media="http://search.yahoo.com/mrss/">
<channel>
 <title>Getty</title>
 <link>http://www.gettyimg.com/</link>
 <atom:link href="http://www.gettyimg.com/" rel="self" type="application/rss+xml" />

 
                <item>
                <title><![CDATA[【Apple Music】WEB-RiP - Melanie Martinez - VOID [2160p AM WEB-DL AAC2.0 H.265]]]></title>
                <link><![CDATA[https://sharemania.us/threads/melanie-martinez-void-2160p-am-web-dl-aac2-0-h-265.222601/]]></link>
                <description><![CDATA[<article>
<blockquote class="messageText SelectQuoteContainer ugc baseHtml">
<div style="text-align: center"><img src="https://i.imgur.com/0P2OLLT.jpg" class="bbCodeImage LbImage" alt="[​IMG]" data-url="https://i.imgur.com/0P2OLLT.jpg" style=""> <br>
<div style="text-align: center">​</div>
<div class="ToggleTriggerAnchor bbCodeSpoilerContainer">
<button type="button" class="button bbCodeSpoilerButton ToggleTrigger Tooltip JsOnly" data-target="> .SpoilerTarget"><span>Spoiler</span></button>
<div class="SpoilerTarget bbCodeSpoilerText">General<br>
Complete name : C:\Users\Downloads\Apple Music\Melanie Martinez\Unknown Album\VOID.m4v<br>
Format : MPEG-4<br>
Codec ID : M4V (isom/iso4/M4V /mp42)<br>
File size : 704 MiB<br>
Duration : 4 min 41 s<br>
Overall bit rate mode : Variable<br>
Overall bit rate : 21.0 Mb/s<br>
Frame rate : 23.976 FPS<br>
Movie name : VOID<br>
Performer : Melanie Martinez<br>
Genre : Alternative<br>
ContentType : Music Video<br>
Recorded date : 2023-06-13 07:00:00 UTC<br>
Encoded date : 2023-06-13 23:31:08 UTC<br>
Tagged date : 2023-06-13 23:31:08 UTC<br>
Copyright : ℗ © 2023 Atlantic Recording Corporation<br>
Cover : Yes<br>
Rating : None<br>
GenreID : 1620<br>
AppleStoreCountry : Brazil<br>
AlbumTitleID : 993014053<br>
AppleStoreCatalogID : 1691808002<br>
Video<br>
ID : 2<br>
Format : HEVC<br>
Format/Info : High Efficiency Video Coding<br>
Format profile : Main 10@L5@High<br>
Codec ID : hvc1<br>
Codec ID/Info : High Efficiency Video Coding<br>
Duration : 4 min 41 s<br>
Bit rate : 20.7 Mb/s<br>
Maximum bit rate : 37.9 Mb/s<br>
Width : 3 840 pixels<br>
Height : 1 632 pixels<br>
Display aspect ratio : 2.35:1<br>
Frame rate mode : Constant<br>
Frame rate : 23.976 (24000/1001) FPS<br>
Color space : YUV<br>
Chroma subsampling : 4:2:0<br>
Bit depth : 10 bits<br>
Scan type : Progressive<br>
Bits/(Pixel*Frame) : 0.138<br>
Stream size : 694 MiB (99%)<br>
Title : Core Media Video<br>
Encoded date : 2023-06-09 07:01:40 UTC<br>
Tagged date : 2023-06-13 23:31:12 UTC<br>
Color range : Limited<br>
Color primaries : BT.709<br>
Transfer characteristics : BT.709<br>
Matrix coefficients : BT.709<br>
Codec configuration box : hvcC<br>
Audio<br>
ID : 1<br>
Format : AAC LC<br>
Format/Info : Advanced Audio Codec Low Complexity<br>
Codec ID : mp4a-40-2<br>
Duration : 4 min 41 s<br>
Duration_LastFrame : -15 ms<br>
Bit rate mode : Variable<br>
Bit rate : 265 kb/s<br>
Maximum bit rate : 338 kb/s<br>
Channel(s) : 2 channels<br>
Channel layout : L R<br>
Sampling rate : 48.0 kHz<br>
Frame rate : 46.875 FPS (1024 SPF)<br>
Compression mode : Lossy<br>
Stream size : 8.80 MiB (1%)<br>
Title : Core Media Audio<br>
Encoded date : 2023-06-09 06:51:43 UTC<br>
Tagged date : 2023-06-13 23:31:12 UTC</div>
</div><br>
<div class="bbCodeBlock bbCodeVfcHH HiddenContent">
<div class="attribution type">Hidden Content:</div>
<blockquote>You must reply before you can see the hidden data contained here.</blockquote>
</div></div>
<div class="messageTextEndMarker">&nbsp;</div>
</blockquote>
</article>]]></description>
                <author><![CDATA[Brungor]]></author>
                </item>

                </channel></rss>